<svg width="40" height="40" viewBox="0 0 40 40" fill="none" xmlns="http://www.w3.org/2000/svg">
  <circle cx="20" cy="20" r="20" fill="url(#gradient)"/>
  <path d="M20 10C14.477 10 10 14.477 10 20C10 25.523 14.477 30 20 30C25.523 30 30 25.523 30 20C30 14.477 25.523 10 20 10ZM20 27C16.134 27 13 23.866 13 20C13 16.134 16.134 13 20 13C23.866 13 27 16.134 27 20C27 23.866 23.866 27 20 27Z" fill="white" fill-opacity="0.5"/>
  <circle cx="20" cy="20" r="4" fill="white" fill-opacity="0.7"/>
  <defs>
    <linearGradient id="gradient" x1="0" y1="0" x2="40" y2="40" gradientUnits="userSpaceOnUse">
      <stop stop-color="#14F195"/>
      <stop offset="1" stop-color="#5B4AF0"/>
    </linearGradient>
  </defs>
</svg>
